<?xml version="1.0" encoding="UTF-8" standalone="no"?>
<!DOCTYPE svg PUBLIC "-//W3C//DTD SVG 1.1//EN"
 "http://www.w3.org/Graphics/SVG/1.1/DTD/svg11.dtd">
<!-- Generated by graphviz version 2.26.3 (20100126.1600)
 -->
<!-- Title: G Pages: 1 -->
<svg width="534pt" height="388pt"
 viewBox="0.00 0.00 534.00 388.00" xmlns="http://www.w3.org/2000/svg" xmlns:xlink="http://www.w3.org/1999/xlink">
<g id="graph1" class="graph" transform="scale(1 1) rotate(0) translate(4 384)">
<title>G</title>
<polygon fill="white" stroke="white" points="-4,5 -4,-384 531,-384 531,5 -4,5"/>
<g id="graph2" class="cluster"><title>cluster_Qunit</title>
<polyline fill="none" stroke="gray" points="20,-44 506,-44 "/>
<path fill="none" stroke="gray" d="M506,-44C512,-44 518,-50 518,-56"/>
<polyline fill="none" stroke="gray" points="518,-56 518,-360 "/>
<path fill="none" stroke="gray" d="M518,-360C518,-366 512,-372 506,-372"/>
<polyline fill="none" stroke="gray" points="506,-372 20,-372 "/>
<path fill="none" stroke="gray" d="M20,-372C14,-372 8,-366 8,-360"/>
<polyline fill="none" stroke="gray" points="8,-360 8,-56 "/>
<path fill="none" stroke="gray" d="M8,-56C8,-50 14,-44 20,-44"/>
<text text-anchor="middle" x="263" y="-358.1" font-family="Times Roman,serif" font-size="11.00" fill="gray">Qunit</text>
</g>
<g id="graph3" class="cluster"><title>cluster_Qunit\core</title>
<polyline fill="none" stroke="gray" points="28,-52 364,-52 "/>
<path fill="none" stroke="gray" d="M364,-52C370,-52 376,-58 376,-64"/>
<polyline fill="none" stroke="gray" points="376,-64 376,-330 "/>
<path fill="none" stroke="gray" d="M376,-330C376,-336 370,-342 364,-342"/>
<polyline fill="none" stroke="gray" points="364,-342 28,-342 "/>
<path fill="none" stroke="gray" d="M28,-342C22,-342 16,-336 16,-330"/>
<polyline fill="none" stroke="gray" points="16,-330 16,-64 "/>
<path fill="none" stroke="gray" d="M16,-64C16,-58 22,-52 28,-52"/>
<text text-anchor="middle" x="196" y="-328.1" font-family="Times Roman,serif" font-size="11.00" fill="gray">core</text>
</g>
<g id="graph4" class="cluster"><title>cluster_Qunit\dimensions</title>
<polyline fill="none" stroke="gray" points="444,-214 498,-214 "/>
<path fill="none" stroke="gray" d="M498,-214C504,-214 510,-220 510,-226"/>
<polyline fill="none" stroke="gray" points="510,-226 510,-276 "/>
<path fill="none" stroke="gray" d="M510,-276C510,-282 504,-288 498,-288"/>
<polyline fill="none" stroke="gray" points="498,-288 444,-288 "/>
<path fill="none" stroke="gray" d="M444,-288C438,-288 432,-282 432,-276"/>
<polyline fill="none" stroke="gray" points="432,-276 432,-226 "/>
<path fill="none" stroke="gray" d="M432,-226C432,-220 438,-214 444,-214"/>
<text text-anchor="middle" x="471" y="-274.1" font-family="Times Roman,serif" font-size="11.00" fill="gray">dimensions</text>
</g>
<!-- \\Qunit\\core\\Qunit -->
<g id="node3" class="node"><title>\\Qunit\\core\\Qunit</title>
<a xlink:href="core.Qunit.html" xlink:title="«abstract»&lt;br/&gt;Qunit" target="_parent">
<polygon fill="none" stroke="black" points="109,-285 25,-285 25,-249 109,-249 109,-285"/>
<text text-anchor="start" x="33" y="-272.433" font-family="Courier,monospace" font-size="11.00">«abstract»</text>
<text text-anchor="start" x="50" y="-259.233" font-family="Courier,monospace" font-size="11.00">Qunit</text>
</a>
</g>
<!-- \\Qunit\\core\\QunitPropertyException -->
<g id="node4" class="node"><title>\\Qunit\\core\\QunitPropertyException</title>
<a xlink:href="core.QunitException.html" xlink:title="QunitPropertyException" target="_parent">
<polygon fill="none" stroke="black" points="367,-204 203,-204 203,-168 367,-168 367,-204"/>
<text text-anchor="middle" x="285" y="-183.1" font-family="Courier,monospace" font-size="11.00">QunitPropertyException</text>
</a>
</g>
<!-- \\Exception -->
<g id="node13" class="node"><title>\\Exception</title>
<ellipse fill="none" stroke="black" cx="67" cy="-18" rx="62.9325" ry="18.3848"/>
<text text-anchor="middle" x="67" y="-14.4" font-family="Times Roman,serif" font-size="14.00" fill="gray">\Exception</text>
</g>
<!-- \\Qunit\\core\\QunitPropertyException&#45;&gt;\\Exception -->
<g id="edge7" class="edge"><title>\\Qunit\\core\\QunitPropertyException&#45;&gt;\\Exception</title>
<path fill="none" stroke="black" d="M216.048,-167.813C211.077,-165.245 206.326,-162.323 202,-159 155.364,-123.183 174.212,-86.7691 130,-48 125.449,-44.009 120.274,-40.433 114.892,-37.2621"/>
<polygon fill="none" stroke="black" points="116.176,-33.9778 105.714,-32.3064 112.85,-40.1373 116.176,-33.9778"/>
</g>
<!-- \\Qunit\\core\\QunitInvalidUnit -->
<g id="node5" class="node"><title>\\Qunit\\core\\QunitInvalidUnit</title>
<a xlink:href="core.QunitException.html" xlink:title="QunitInvalidUnit" target="_parent">
<polygon fill="none" stroke="black" points="347,-150 223,-150 223,-114 347,-114 347,-150"/>
<text text-anchor="middle" x="285" y="-129.1" font-family="Courier,monospace" font-size="11.00">QunitInvalidUnit</text>
</a>
</g>
<!-- \\Qunit\\core\\QunitInvalidUnit&#45;&gt;\\Exception -->
<g id="edge9" class="edge"><title>\\Qunit\\core\\QunitInvalidUnit&#45;&gt;\\Exception</title>
<path fill="none" stroke="black" d="M222.355,-114.297C215.335,-111.533 208.41,-108.436 202,-105 166.028,-85.7173 164.644,-69.577 130,-48 124.127,-44.3425 117.74,-40.8238 111.359,-37.5641"/>
<polygon fill="none" stroke="black" points="112.593,-34.2704 102.076,-32.9875 109.498,-40.5488 112.593,-34.2704"/>
</g>
<!-- \\Qunit\\core\\QunitInvalidQuantity -->
<g id="node6" class="node"><title>\\Qunit\\core\\QunitInvalidQuantity</title>
<a xlink:href="core.QunitException.html" xlink:title="QunitInvalidQuantity" target="_parent">
<polygon fill="none" stroke="black" points="361,-96 209,-96 209,-60 361,-60 361,-96"/>
<text text-anchor="middle" x="285" y="-75.1" font-family="Courier,monospace" font-size="11.00">QunitInvalidQuantity</text>
</a>
</g>
<!-- \\Qunit\\core\\QunitInvalidQuantity&#45;&gt;\\Exception -->
<g id="edge11" class="edge"><title>\\Qunit\\core\\QunitInvalidQuantity&#45;&gt;\\Exception</title>
<path fill="none" stroke="black" d="M219.593,-59.998C188.606,-51.4696 151.992,-41.3923 122.397,-33.2469"/>
<polygon fill="none" stroke="black" points="123.218,-29.8429 112.648,-30.5637 121.361,-36.5919 123.218,-29.8429"/>
</g>
<!-- \\Qunit\\core\\Config -->
<g id="node7" class="node"><title>\\Qunit\\core\\Config</title>
<a xlink:href="core.Config.html" xlink:title="Config" target="_parent">
<polygon fill="none" stroke="black" points="313,-312 257,-312 257,-276 313,-276 313,-312"/>
<text text-anchor="middle" x="285" y="-291.1" font-family="Courier,monospace" font-size="11.00">Config</text>
</a>
</g>
<!-- \\Qunit\\core\\Config&#45;&gt;\\Qunit\\core\\Qunit -->
<g id="edge13" class="edge"><title>\\Qunit\\core\\Config&#45;&gt;\\Qunit\\core\\Qunit</title>
<path fill="none" stroke="black" d="M256.051,-290.415C221.31,-286.112 162.39,-278.814 119.544,-273.508"/>
<polygon fill="none" stroke="black" points="119.925,-270.028 109.57,-272.272 119.064,-276.975 119.925,-270.028"/>
</g>
<!-- \\Qunit\\core\\Converter -->
<g id="node8" class="node"><title>\\Qunit\\core\\Converter</title>
<a xlink:href="core.Converter.html" xlink:title="Converter" target="_parent">
<polygon fill="none" stroke="black" points="323,-258 247,-258 247,-222 323,-222 323,-258"/>
<text text-anchor="middle" x="285" y="-237.1" font-family="Courier,monospace" font-size="11.00">Converter</text>
</a>
</g>
<!-- \\Qunit\\core\\Converter&#45;&gt;\\Qunit\\core\\Qunit -->
<g id="edge15" class="edge"><title>\\Qunit\\core\\Converter&#45;&gt;\\Qunit\\core\\Qunit</title>
<path fill="none" stroke="black" d="M246.277,-244.796C211.122,-249.15 158.965,-255.61 119.96,-260.441"/>
<polygon fill="none" stroke="black" points="119.334,-256.991 109.84,-261.694 120.194,-263.938 119.334,-256.991"/>
</g>
<!-- \\Qunit\\dimensions\\Length -->
<g id="node10" class="node"><title>\\Qunit\\dimensions\\Length</title>
<a xlink:href="dimensions.Length.html" xlink:title="Length" target="_parent">
<polygon fill="none" stroke="black" points="499,-258 443,-258 443,-222 499,-222 499,-258"/>
<text text-anchor="middle" x="471" y="-237.1" font-family="Courier,monospace" font-size="11.00">Length</text>
</a>
</g>
<!-- \\Qunit\\dimensions\\Length&#45;&gt;\\Qunit\\core\\Converter -->
<g id="edge5" class="edge"><title>\\Qunit\\dimensions\\Length&#45;&gt;\\Qunit\\core\\Converter</title>
<path fill="none" stroke="black" d="M442.345,-240C413.532,-240 368.556,-240 334.057,-240"/>
<polygon fill="none" stroke="black" points="333.716,-236.5 323.716,-240 333.716,-243.5 333.716,-236.5"/>
</g>
</g>
</svg>
